:FULLY-SPECIFIED
:FORCE-ALL-JOINTS-BE-3DOF
:DEGREES
2039
root -3.1597 14.9713 22.2589 900.023 -1.74923 171.67
lfemur -23.4777 16.5169 -25.4172
ltibia 56.3411 0 0
lfoot -22.7603 16.3769 0
ltoes -44.7956 0 0
rfemur -58.859 -16.8639 22.5795
rtibia 89.7936 0 0
rfoot -12.39 -3.48476 0
rtoes -13.5258 0 0
lowerback 15.6635 -1.30914 -9.54672
upperback -0.631626 -3.32981 1.28963
thorax -8.92543 -1.09418 7.59611
lowerneck -4.32542 -1.02186 -4.12133
upperneck 5.42402 -1.05156 0.0793297
head 2.47724 -0.595164 0.677359
lclavicle -6.55658e-14 7.66449e-15 0
lhumerus 7.96159 -18.5843 76.7079
lradius 48.6181 0 0
lwrist -8.75961 0 0
lhand -22.3939 35.667 0
lfingers 7.12502 0 0
lthumb 4.02832 -679.908 0
rclavicle -6.55658e-14 7.66449e-15 0
rhumerus -25.0214 25.6859 -81.8539
rradius 125.261 0 0
rwrist -44.3042 0 0
rhand 3.55495 -393.358 0
rfingers 7.12502 0 0
rthumb 28.9825 298.967 0
2040
root -3.15172 14.9508 22.0851 900.048 -1.78713 171.682
lfemur -23.4144 16.4426 -25.3878
ltibia 56.3245 0 0
lfoot -22.7529 16.446 0
ltoes -44.7941 0 0
rfemur -58.8453 -16.8617 22.5471
rtibia 89.7055 0 0
rfoot -12.3727 -3.50852 0
rtoes -13.4726 0 0
lowerback 15.6556 -1.29616 -9.54004
upperback -0.631187 -3.31098 1.28753
thorax -8.92388 -1.08574 7.58571
lowerneck -4.31218 -1.04642 -4.13968
upperneck 5.41229 -1.08643 0.108156
head 2.47738 -0.612241 0.68716
lclavicle -6.55494e-14 7.60324e-15 0
lhumerus 7.6978 -18.5808 76.7823
lradius 48.8244 0 0
lwrist -8.54594 0 0
lhand -22.3755 35.6914 0
lfingers 7.12502 0 0
lthumb 4.04603 -679.445 0
rclavicle -6.55494e-14 7.60324e-15 0
rhumerus -24.8042 25.5962 -81.7787
rradius 124.903 0 0
rwrist -44.1026 0 0
rhand 3.48442 -393.394 0
rfingers 7.12502 0 0
rthumb 28.9148 298.924 0
2041
root -3.14373 14.9304 21.9113 900.087 -1.77974 171.707
lfemur -23.3807 16.3764 -25.3485
ltibia 56.337 0 0
lfoot -22.7393 16.5203 0
ltoes -44.7705 0 0
rfemur -58.8027 -16.8593 22.5149
rtibia 89.5967 0 0
rfoot -12.3702 -3.55714 0
rtoes -13.4314 0 0
lowerback 15.6473 -1.28266 -9.51984
upperback -0.630535 -3.28852 1.28859
thorax -8.92238 -1.07602 7.57019
lowerneck -4.29693 -1.0595 -4.14971
upperneck 5.39645 -1.10609 0.128369
head 2.47712 -0.621687 0.693265
lclavicle -6.56433e-14 7.48397e-15 0
lhumerus 7.43119 -18.591 76.8365
lradius 49.0588 0 0
lwrist -8.33004 0 0
lhand -22.3637 35.7411 0
lfingers 7.12502 0 0
lthumb 4.0574 -678.472 0
rclavicle -6.56433e-14 7.48397e-15 0
rhumerus -24.6219 25.511 -81.7159
rradius 124.528 0 0
rwrist -43.922 0 0
rhand 3.41345 -393.437 0
rfingers 7.12502 0 0
rthumb 28.8466 298.873 0
2042
root -3.13575 14.91 21.7375 900.139 -1.73562 171.745
lfemur -23.3691 16.3129 -25.2991
ltibia 56.3734 0 0
lfoot -22.7198 16.6028 0
ltoes -44.728 0 0
rfemur -58.7347 -16.8566 22.4812
rtibia 89.4655 0 0
rfoot -12.3793 -3.62834 0
rtoes -13.3977 0 0
lowerback 15.6381 -1.26801 -9.48771
upperback -0.629679 -3.26194 1.29222
thorax -8.92083 -1.06476 7.54972
lowerneck -4.27924 -1.06408 -4.1536
upperneck 5.37647 -1.11462 0.142769
head 2.47652 -0.625526 0.696734
lclavicle -6.58308e-14 7.31172e-15 0
lhumerus 7.1479 -18.6129 76.8776
lradius 49.3285 0 0
lwrist -8.10067 0 0
lhand -22.3565 35.8136 0
lfingers 7.12502 0 0
lthumb 4.06431 -677.036 0
rclavicle -6.58308e-14 7.31172e-15 0
rhumerus -24.4575 25.4246 -81.6597
rradius 124.118 0 0
rwrist -43.7486 0 0
rhand 3.3383 -393.488 0
rfingers 7.12502 0 0
rthumb 28.7744 298.814 0
